<svg width="118" height="105" viewBox="0 0 118 105" fill="none" xmlns="http://www.w3.org/2000/svg">
<g opacity="0.1">
<path d="M65.1091 83.9083C63.843 83.9083 62.8166 84.9349 62.8166 86.2009V93.5371C62.8166 99.8578 67.9588 105 74.2794 105H105.917C112.238 105 117.38 99.8578 117.38 93.5371V66.0289C117.38 59.7083 112.238 54.5661 105.917 54.5661H91.0859C91.6077 37.4391 98.106 28.5357 110.907 27.3711C112.088 27.2635 112.992 26.2736 112.992 25.0879V2.29257C112.992 1.66212 112.733 1.05963 112.275 0.626564C111.848 0.223297 111.284 0 110.7 0C110.657 0 110.614 0.00114441 110.571 0.00366211C94.7732 0.892265 82.7136 6.32912 74.7267 16.1633C66.8238 25.8944 62.8166 40.1134 62.8166 58.4259V66.6376C62.8166 67.9036 63.843 68.9302 65.1091 68.9302C66.3753 68.9302 67.4017 67.9036 67.4017 66.6376V58.4259C67.4017 24.8066 80.8213 7.22552 108.407 4.75732V23.0603C101.435 24.1447 96.042 27.3901 92.3571 32.7261C88.4485 38.3867 86.4666 46.5058 86.4666 56.8586C86.4666 58.1246 87.4929 59.1512 88.7591 59.1512H105.917C109.709 59.1512 112.795 62.2366 112.795 66.0289V93.5371C112.795 97.3295 109.709 100.415 105.917 100.415H74.2794C70.4871 100.415 67.4017 97.3295 67.4017 93.5371V86.2009C67.4017 84.9349 66.3753 83.9083 65.1091 83.9083Z" fill="white"/>
<path d="M11.4628 105H43.1004C49.421 105 54.5632 99.8578 54.5632 93.5371V66.0289C54.5632 59.7083 49.421 54.5661 43.1004 54.5661H28.2692C28.791 37.4391 35.2893 28.5357 48.0906 27.3711C49.2713 27.2635 50.1755 26.2736 50.1755 25.0879V2.29257C50.1755 1.66212 49.9159 1.05963 49.4579 0.626564C49.031 0.223068 48.4673 0 47.8831 0C47.8403 0 47.7971 0.00114441 47.7543 0.00366211C31.9566 0.892265 19.897 6.32912 11.9101 16.1633C4.00711 25.8942 -8.39233e-05 40.1134 -8.39233e-05 58.4259V93.5371C-8.39233e-05 99.8578 5.14217 105 11.4628 105ZM4.58507 58.4259C4.58507 24.8066 18.0047 7.22552 45.5903 4.75732V23.0603C38.6181 24.1447 33.2253 27.3901 29.5407 32.7261C25.6321 38.3864 23.6501 46.5056 23.6501 56.8586C23.6501 58.1246 24.6765 59.1512 25.9427 59.1512H43.1004C46.8927 59.1512 49.9781 62.2366 49.9781 66.0289V93.5371C49.9781 97.3295 46.8927 100.415 43.1004 100.415H15.5894V83.442C15.5894 82.176 14.563 81.1494 13.2969 81.1494C12.0307 81.1494 11.0043 82.176 11.0043 83.442V100.398C7.42511 100.161 4.58507 97.1752 4.58507 93.5371V58.4259Z" fill="white"/>
<path d="M13.2968 77.7754C14.563 77.7754 15.5894 76.7375 15.5894 75.4716C15.5894 74.2056 14.563 73.179 13.2968 73.179C12.0308 73.179 11.0042 74.2056 11.0042 75.4716V75.4943C11.0042 76.7602 12.0306 77.7754 13.2968 77.7754Z" fill="white"/>
<path d="M65.1093 78.7119C66.3755 78.7119 67.4019 77.6853 67.4019 76.4193V76.3714C67.4019 75.1055 66.3755 74.0788 65.1093 74.0788C63.8431 74.0788 62.8167 75.1055 62.8167 76.3714V76.4193C62.8167 77.6853 63.8431 78.7119 65.1093 78.7119Z" fill="white"/>
</g>
</svg>
